grf
version=1
nRows=19
nColumns=37
inDegrees=no
endheader
time	ground_force_1_vx	ground_force_1_vy	ground_force_1_vz	ground_force_1_px	ground_force_1_py	ground_force_1_pz	ground_moment_1_mx	ground_moment_1_my	ground_moment_1_mz	ground_force_2_vx	ground_force_2_vy	ground_force_2_vz	ground_force_2_px	ground_force_2_py	ground_force_2_pz	ground_moment_2_mx	ground_moment_2_my	ground_moment_2_mz	ground_force_3_vx	ground_force_3_vy	ground_force_3_vz	ground_force_3_px	ground_force_3_py	ground_force_3_pz	ground_moment_3_mx	ground_moment_3_my	ground_moment_3_mz	ground_force_4_vx	ground_force_4_vy	ground_force_4_vz	ground_force_4_px	ground_force_4_py	ground_force_4_pz	ground_moment_4_mx	ground_moment_4_my	ground_moment_4_mz
      6.50000000	      0.00000000	     -0.00000000	      0.00000000	      0.00000000	      0.00000000	      0.00000000	      0.00000000	      0.00000000	      0.00000000	    -20.40969086	    116.41712952	   -625.74664307	   -211.59360034	  -1064.17537399	      0.00000000	      0.00000000	      0.00000000	   1425.98463309	    -47.66911633	   -123.59565318	   -610.07299805	   -176.92748957	   -658.97377358	      0.00000000	     -0.00000000	     -0.00000000	  -3632.99396668	      0.00000000	     -0.00000000	      0.00000000	      0.00000000	      0.00000000	      0.00000000	      0.00000000	      0.00000000	      0.00000000
      6.51000000	      0.00000000	     -0.00000000	      0.00000000	      0.00000000	      0.00000000	      0.00000000	      0.00000000	      0.00000000	      0.00000000	    -21.94771385	     99.30343628	   -504.18591309	   -208.07687691	  -1066.31409094	      0.00000000	      0.00000000	      0.00000000	   1120.20844628	    -37.13995532	   -106.74708995	   -513.03387451	   -176.28822639	   -657.50045689	      0.00000000	      0.00000000	     -0.00000000	  -2506.37125856	      0.00000000	     -0.00000000	      0.00000000	      0.00000000	      0.00000000	      0.00000000	      0.00000000	      0.00000000	      0.00000000
      6.52000000	      0.00000000	     -0.00000000	      0.00000000	      0.00000000	      0.00000000	      0.00000000	      0.00000000	      0.00000000	      0.00000000	    -22.30429268	     81.70239258	   -386.57946777	   -202.18976216	  -1068.17435857	      0.00000000	      0.00000000	      0.00000000	    523.51983802	    -29.31621562	    -88.50917560	   -419.02484131	   -174.90158365	   -654.77844300	      0.00000000	      0.00000000	     -0.00000000	  -1586.37971588	      0.00000000	     -0.00000000	      0.00000000	      0.00000000	      0.00000000	      0.00000000	      0.00000000	      0.00000000	      0.00000000
      6.53000000	      0.00000000	     -0.00000000	      0.00000000	      0.00000000	      0.00000000	      0.00000000	      0.00000000	      0.00000000	      0.00000000	    -17.61416245	     65.74929047	   -286.55831909	   -196.17961941	  -1070.67251857	      0.00000000	      0.00000000	      0.00000000	    135.51703182	    -21.88669060	    -70.73951530	   -332.96841431	   -174.67909125	   -652.37595408	      0.00000000	      0.00000000	     -0.00000000	  -1057.94847716	      0.00000000	     -0.00000000	      0.00000000	      0.00000000	      0.00000000	      0.00000000	      0.00000000	      0.00000000	      0.00000000
      6.54000000	      0.00000000	     -0.00000000	      0.00000000	      0.00000000	      0.00000000	      0.00000000	      0.00000000	      0.00000000	      0.00000000	    -12.02028942	     50.35537338	   -207.48229980	   -189.59967524	  -1074.52809180	      0.00000000	      0.00000000	     -0.00000000	   -220.94380336	    -13.90199856	    -54.97591660	   -260.00253296	   -175.29527549	   -651.66965077	      0.00000000	      0.00000000	     -0.00000000	   -656.65668558	      0.00000000	     -0.00000000	      0.00000000	      0.00000000	      0.00000000	      0.00000000	      0.00000000	      0.00000000	      0.00000000
      6.55000000	      0.00000000	     -0.00000000	      0.00000000	      0.00000000	      0.00000000	      0.00000000	      0.00000000	      0.00000000	      0.00000000	     -7.35776854	     35.29228592	   -152.73536682	   -184.74961030	  -1076.42224340	      0.00000000	      0.00000000	      0.00000000	     53.48604842	     -6.58555066	    -42.17311802	   -203.27708435	   -176.98815789	   -651.58673199	      0.00000000	      0.00000000	     -0.00000000	   -440.44186352	      0.00000000	     -0.00000000	      0.00000000	      0.00000000	      0.00000000	      0.00000000	      0.00000000	      0.00000000	      0.00000000
      6.56000000	      0.00000000	     -0.00000000	      0.00000000	      0.00000000	      0.00000000	      0.00000000	      0.00000000	      0.00000000	      0.00000000	     -1.40463281	     26.62669945	   -121.49161530	   -187.33559727	  -1080.38435982	      0.00000000	      0.00000000	     -0.00000000	    -17.57516519	     -0.41939311	    -33.29512020	   -165.05645752	   -178.47294468	   -649.64512199	      0.00000000	      0.00000000	     -0.00000000	   -395.05721800	      0.00000000	     -0.00000000	      0.00000000	      0.00000000	      0.00000000	      0.00000000	      0.00000000	      0.00000000	      0.00000000
      6.57000000	      0.00000000	     -0.00000000	      0.00000000	      0.00000000	      0.00000000	      0.00000000	      0.00000000	      0.00000000	      0.00000000	      2.96700692	     20.49971771	   -102.68624878	   -183.70320103	  -1079.67396116	      0.00000000	      0.00000000	     -0.00000000	   -203.51945506	      2.99493690	    -27.71061351	   -141.23100281	   -179.94984210	   -648.64889283	      0.00000000	      0.00000000	     -0.00000000	   -335.96267517	      0.00000000	     -0.00000000	      0.00000000	      0.00000000	      0.00000000	      0.00000000	      0.00000000	      0.00000000	      0.00000000
      6.58000000	      0.00000000	     -0.00000000	      0.00000000	      0.00000000	      0.00000000	      0.00000000	      0.00000000	      0.00000000	      0.00000000	      4.83971548	     17.58093834	    -90.94347382	   -183.28204452	  -1082.32164472	      0.00000000	      0.00000000	     -0.00000000	   -256.14236026	      5.12308909	    -24.35440108	   -128.48710632	   -182.65720735	   -646.80473148	      0.00000000	      0.00000000	     -0.00000000	   -340.71476603	      0.00000000	     -0.00000000	      0.00000000	      0.00000000	      0.00000000	      0.00000000	      0.00000000	      0.00000000	      0.00000000
      6.59000000	      0.00000000	     -0.00000000	      0.00000000	      0.00000000	      0.00000000	      0.00000000	      0.00000000	      0.00000000	      0.00000000	      4.46052551	     14.90767956	    -82.38058472	   -183.47164734	  -1080.46146081	      0.00000000	      0.00000000	     -0.00000000	   -278.44483002	      6.01012224	    -22.47793250	   -120.63212585	   -181.85923876	   -645.71540775	      0.00000000	      0.00000000	     -0.00000000	   -339.08138821	      0.00000000	     -0.00000000	      0.00000000	      0.00000000	      0.00000000	      0.00000000	      0.00000000	      0.00000000	      0.00000000
      6.60000000	      0.00000000	     -0.00000000	      0.00000000	      0.00000000	      0.00000000	      0.00000000	      0.00000000	      0.00000000	      0.00000000	      2.98882127	     14.21656799	    -77.70171356	   -184.99695587	  -1080.33260609	      0.00000000	      0.00000000	     -0.00000000	   -771.04909049	      5.74431143	    -20.71124318	   -113.38660431	   -181.25453947	   -645.52485719	      0.00000000	      0.00000000	     -0.00000000	   -318.70277064	      0.00000000	     -0.00000000	      0.00000000	      0.00000000	      0.00000000	      0.00000000	      0.00000000	      0.00000000	      0.00000000
      6.61000000	      0.00000000	     -0.00000000	      0.00000000	      0.00000000	      0.00000000	      0.00000000	      0.00000000	      0.00000000	      0.00000000	      1.58328640	     13.70519924	    -75.14141083	   -185.92600845	  -1081.59826347	      0.00000000	      0.00000000	     -0.00000000	   -943.04143461	      5.67748851	    -19.76117184	   -108.49822235	   -181.17340172	   -648.33782934	      0.00000000	      0.00000000	     -0.00000000	   -321.63606854	      0.00000000	     -0.00000000	      0.00000000	      0.00000000	      0.00000000	      0.00000000	      0.00000000	      0.00000000	      0.00000000
      6.62000000	      0.00000000	     -0.00000000	      0.00000000	      0.00000000	      0.00000000	      0.00000000	      0.00000000	      0.00000000	      0.00000000	      0.73626226	     14.17173386	    -72.04870605	   -187.66849140	  -1079.75263756	      0.00000000	      0.00000000	     -0.00000000	   -817.90090339	      4.14793792	    -20.11691511	   -106.57946014	   -179.01510307	   -646.97348130	      0.00000000	      0.00000000	     -0.00000000	   -150.20246824	      0.00000000	     -0.00000000	      0.00000000	      0.00000000	      0.00000000	      0.00000000	      0.00000000	      0.00000000	      0.00000000
      6.63000000	      0.00000000	     -0.00000000	      0.00000000	      0.00000000	      0.00000000	      0.00000000	      0.00000000	      0.00000000	      0.00000000	      1.49257004	     13.68083477	    -76.89817810	   -189.34807234	  -1093.25192441	      0.00000000	     -0.00000000	     -0.00000000	   -797.15318271	      1.42178807	    -22.14515889	   -109.01902008	   -181.49830597	   -646.03262180	      0.00000000	      0.00000000	     -0.00000000	   -135.83688596	      0.00000000	     -0.00000000	      0.00000000	      0.00000000	      0.00000000	      0.00000000	      0.00000000	      0.00000000	      0.00000000
      6.64000000	      0.00000000	     -0.00000000	      0.00000000	      0.00000000	      0.00000000	      0.00000000	      0.00000000	      0.00000000	      0.00000000	      2.91962624	     14.70651627	    -80.96170807	   -192.91686161	  -1087.95661919	      0.00000000	      0.00000000	     -0.00000000	   -898.22972351	     -0.86456803	    -24.22113411	   -113.72897339	   -180.86559807	   -644.02021558	      0.00000000	      0.00000000	     -0.00000000	   -157.16939720	      0.00000000	     -0.00000000	      0.00000000	      0.00000000	      0.00000000	      0.00000000	      0.00000000	      0.00000000	      0.00000000
      6.65000000	      0.00000000	     -0.00000000	      0.00000000	      0.00000000	      0.00000000	      0.00000000	      0.00000000	      0.00000000	      0.00000000	      3.67466474	     16.99923134	    -92.24739838	   -195.24191139	  -1091.09243299	      0.00000000	     -0.00000000	     -0.00000000	  -1054.25007761	     -2.04035035	    -26.23154050	   -120.62151337	   -180.48254817	   -641.15887134	      0.00000000	      0.00000000	     -0.00000000	    -35.07789211	      0.00000000	     -0.00000000	      0.00000000	      0.00000000	      0.00000000	      0.00000000	      0.00000000	      0.00000000	      0.00000000
      6.66000000	      0.00000000	     -0.00000000	      0.00000000	      0.00000000	      0.00000000	      0.00000000	      0.00000000	      0.00000000	      0.00000000	      4.97294140	     20.45651627	   -105.57492828	   -196.22139344	  -1090.95679263	      0.00000000	      0.00000000	     -0.00000000	  -1164.58989212	     -2.46122238	    -29.62690332	   -131.53294373	   -183.70399718	   -642.84850096	      0.00000000	      0.00000000	      0.00000000	     17.95867340	      0.00000000	     -0.00000000	      0.00000000	      0.00000000	      0.00000000	      0.00000000	      0.00000000	      0.00000000	      0.00000000
      6.67000000	      0.00000000	     -0.00000000	      0.00000000	      0.00000000	      0.00000000	      0.00000000	      0.00000000	      0.00000000	      0.00000000	      6.73663330	     26.06692505	   -126.70084381	   -200.70981367	  -1088.96879942	      0.00000000	      0.00000000	     -0.00000000	  -1308.93870376	     -3.35057338	    -33.67091340	   -143.58175659	   -184.53970703	   -645.96632342	      0.00000000	     -0.00000000	      0.00000000	     98.15688200	      0.00000000	     -0.00000000	      0.00000000	      0.00000000	      0.00000000	      0.00000000	      0.00000000	      0.00000000	      0.00000000
      6.68000000	      0.00000000	     -0.00000000	      0.00000000	      0.00000000	      0.00000000	      0.00000000	      0.00000000	      0.00000000	      0.00000000	      8.20188236	     36.59318924	   -164.25453186	   -215.52353277	  -1091.15202778	      0.00000000	      0.00000000	      0.00000000	  -1670.03647642	     -3.48254635	    -38.37192123	   -158.95381165	   -186.05375068	   -644.81999311	      0.00000000	     -0.00000000	      0.00000000	     55.88623722	      0.00000000	     -0.00000000	      0.00000000	      0.00000000	      0.00000000	      0.00000000	      0.00000000	      0.00000000	      0.00000000
